<svg width="1260" height="552" viewBox="0 0 1260 552" fill="none" xmlns="http://www.w3.org/2000/svg">
<mask id="mask0_1_31" style="mask-type:luminance" maskUnits="userSpaceOnUse" x="0" y="0" width="1260" height="552">
<path d="M1260 0H0V551.888H1260V0Z" fill="white"/>
</mask>
<g mask="url(#mask0_1_31)">
<path d="M1126.78 36.7142C1100.31 37.5238 1085.58 62.7729 1089.29 72.5986C1090.39 75.4983 1093.09 77.0548 1097.57 76.2429C1149.69 66.798 1175.75 113.498 1179.6 89.8851C1183.45 66.2735 1161.06 35.6652 1126.78 36.7142Z" fill="#FFB130"/>
<path d="M1132.62 332.84C1113.36 360.184 1081.92 380.903 1092.18 401.685C1137.01 381.552 1223.89 405.849 1221.21 387.242C1213.8 335.865 1243.92 284.758 1242.96 242.874C1242.39 218.468 1231.61 178.448 1208.94 169.646C1117.22 134.038 1096.51 210.796 1096.51 253.402C1096.51 264.004 1111.43 263.03 1132.62 265.437C1153.8 267.846 1156.69 298.657 1132.62 332.84Z" fill="#CCDCF6"/>
<path d="M1066.19 77.8765L1033.95 89.8049C1026.85 93.0296 1033.11 101.218 1046.52 99.1551C1063.29 96.5758 1097.05 72.5355 1122.61 75.6199C1141.31 77.8765 1158.32 86.5813 1166.42 99.1551" stroke="#1C4F4A" stroke-width="5.70136" stroke-linecap="round"/>
<path d="M1156.46 133.973C1156.05 125.577 1162.28 112.731 1166.42 99.155" stroke="#1C4F4A" stroke-width="5.70136" stroke-linecap="round"/>
<path d="M1075.86 73.3636C1084.89 57.028 1115.51 33.0641 1148.72 48.5387C1173.89 60.2675 1172.14 80.407 1166.42 99.1554" stroke="#1C4F4A" stroke-width="5.70136" stroke-linecap="round"/>
<path d="M1075.75 74.4272C1078.38 77.7363 1082.05 86.0351 1075.75 102.47C1067.88 123.013 1078.98 124.383 1075.75 146.296C1074.01 158.152 1105.88 145.3 1109.31 158.653C1112.73 172.005 1085.34 210.694 1073.7 199.396C1062.06 188.098 1117.52 125.099 1178.13 164.474C1226.6 195.973 1223.48 207.59 1215.45 204.189C1215.45 204.189 1166.14 166.548 1178.13 189.487C1190.11 212.427 1207.91 277.322 1183.26 346.62" stroke="#1C4F4A" stroke-width="5.70136" stroke-linecap="round"/>
<path d="M1127.76 133.962C1138.09 133.146 1163.43 135.486 1182.13 151.363" stroke="#1C4F4A" stroke-width="5.70136" stroke-linecap="round"/>
<path d="M1104.1 106.501C1110.18 101.879 1119.98 89.3181 1110.63 76.051" stroke="#1C4F4A" stroke-width="5.70136" stroke-linecap="round"/>
<path d="M1123.14 76.0498C1126.21 80.7352 1131.81 92.1265 1133.18 104.761C1133.59 108.575 1136.56 111.79 1140.32 112.56C1146.31 113.788 1153.42 116.356 1157.66 120.91" stroke="#1C4F4A" stroke-width="5.70136" stroke-linecap="round" stroke-linejoin="round"/>
<path d="M1056.7 96.7742C1061.41 98.7685 1072.99 105.11 1072.99 114.2" stroke="#1C4F4A" stroke-width="5.70136" stroke-linecap="round" stroke-linejoin="round"/>
<path d="M1152.06 85.1642C1152.06 68.2038 1160.65 55.6494 1167.7 66.8822" stroke="#1C4F4A" stroke-width="5.70136" stroke-linecap="round" stroke-linejoin="round"/>
<path d="M1068.12 324.112C1075.66 324.651 1084.68 328.555 1089.93 336.232C1095.03 343.685 1096.8 345.524 1104.48 342.696C1112.15 339.868 1138.41 319.264 1138.41 274.019C1138.41 237.824 1145.95 219.888 1149.72 215.445" stroke="#1C4F4A" stroke-width="5.70136" stroke-linecap="round" stroke-linejoin="round"/>
<path d="M976.206 218.556C1000.38 227.388 985.501 259.462 1044.54 275.267C1103.57 291.071 1098.46 311.988 1085.44 306.874C1072.43 301.761 1071.5 287.353 1076.15 262.251C1079.86 242.169 1074.6 218.866 1071.5 209.724" stroke="#1C4F4A" stroke-width="5.70136" stroke-linecap="round" stroke-linejoin="round"/>
<path d="M1074.16 276.109C1089.4 274.487 1123.34 273.837 1137.19 284.224" stroke="#1C4F4A" stroke-width="5.70136" stroke-linecap="round" stroke-linejoin="round"/>
<path d="M930.768 204.536C930.768 204.536 930.5 235.777 944.504 243.317C958.509 250.858 992.818 272.483 1018.03 298.66C1049.54 331.381 1068.12 333.805 1074.58 340.269C1081.05 346.732 1078.62 375.01 1070.14 396.017C1063.35 412.822 1065.96 434.259 1068.12 442.877" stroke="#1C4F4A" stroke-width="5.70136" stroke-linecap="round" stroke-linejoin="round"/>
<path d="M988.328 272.044C996.198 262.376 1015.85 245.737 1031.5 256.53" stroke="#1C4F4A" stroke-width="5.70136" stroke-linecap="round" stroke-linejoin="round"/>
<path d="M958.985 228.873L904.686 175.583L938.75 186.039L975.175 219.767L958.985 228.873Z" stroke="#1C4F4A" stroke-width="5.70136" stroke-linecap="round" stroke-linejoin="round"/>
<path d="M820.58 412.668C1213.68 366.27 714.982 522.414 884.359 546.892C1010.1 565.064 1195.48 386.439 1240.79 412.668C1268.18 428.527 1257.94 452.455 1231.89 436.603C1205.85 420.751 1216.62 338.55 1226.82 293.258C1234.97 257.024 1230.22 228.717 1226.82 219.092" stroke="#1C4F4A" stroke-width="5.70136" stroke-linecap="round" stroke-linejoin="round"/>
<path d="M533.55 419.83C544.163 408.756 716.946 418.337 731.026 416.532C747.74 414.389 765.952 459.938 715.591 454.25C675.261 449.694 550.114 474.734 537.16 458.82C531.257 451.568 526.197 427.504 533.55 419.83Z" fill="#CCDCF6"/>
<path d="M660.487 329.964H682.804C683.587 329.964 684.221 330.599 684.221 331.382V347.232C684.221 348.016 683.587 348.651 682.804 348.651H660.487C659.704 348.651 659.069 348.016 659.069 347.232V331.382C659.069 330.599 659.704 329.964 660.487 329.964Z" fill="#FFB130"/>
<path d="M660.487 358.564H707.957C708.74 358.564 709.377 359.199 709.377 359.982V372.373C709.377 373.157 708.74 373.791 707.957 373.791H660.487C659.704 373.791 659.068 373.157 659.068 372.373V359.982C659.068 359.199 659.704 358.564 660.487 358.564Z" fill="#86BFBA"/>
<path d="M762.279 329.964H784.596C785.379 329.964 786.013 330.599 786.013 331.382V338.495C786.013 339.279 785.379 339.914 784.596 339.914H762.279C761.496 339.914 760.861 339.279 760.861 338.495V331.382C760.861 330.599 761.496 329.964 762.279 329.964Z" fill="#FC6719"/>
<path d="M606.684 310.229H629C629.783 310.229 630.417 310.864 630.417 311.648V318.761C630.417 319.544 629.783 320.179 629 320.179H606.684C605.9 320.179 605.265 319.544 605.265 318.761V311.648C605.265 310.864 605.9 310.229 606.684 310.229Z" fill="#FC6719"/>
<path d="M606.684 272.951H629C629.783 272.951 630.417 273.586 630.417 274.369V295.665C630.417 296.449 629.783 297.083 629 297.083H606.684C605.9 297.083 605.265 296.449 605.265 295.665V274.369C605.265 273.586 605.9 272.951 606.684 272.951Z" fill="#CCDCF6"/>
<path d="M720.332 314.575H742.649C743.432 314.575 744.066 315.21 744.066 315.993V318.762C744.066 319.545 743.432 320.18 742.649 320.18H720.332C719.549 320.18 718.914 319.545 718.914 318.762V315.993C718.914 315.21 719.549 314.575 720.332 314.575Z" fill="#CCDCF6"/>
<path d="M720.332 329.964H742.649C743.432 329.964 744.066 330.599 744.066 331.382V362.751C744.066 363.535 743.432 364.17 742.649 364.17H720.332C719.549 364.17 718.914 363.535 718.914 362.751V331.382C718.914 330.599 719.549 329.964 720.332 329.964Z" fill="#CCDCF6"/>
<path d="M571.838 274.491C570.696 275.573 570.647 277.378 571.73 278.521C572.812 279.663 574.617 279.713 575.76 278.629L571.838 274.491ZM575.76 260.379C574.617 259.296 572.812 259.345 571.73 260.488C570.647 261.631 570.696 263.435 571.838 264.518L575.76 260.379ZM581.247 269.505L583.208 271.573C583.776 271.035 584.097 270.287 584.097 269.505C584.097 268.721 583.776 267.973 583.208 267.435L581.247 269.505ZM575.76 278.629L583.208 271.573L579.286 267.435L571.838 274.491L575.76 278.629ZM583.208 267.435L575.76 260.379L571.838 264.518L579.286 271.573L583.208 267.435Z" fill="#FC6719"/>
<path d="M531.858 264.517C533.001 263.435 533.05 261.63 531.966 260.488C530.884 259.345 529.079 259.296 527.937 260.379L531.858 264.517ZM527.937 278.63C529.079 279.714 530.884 279.665 531.966 278.522C533.05 277.378 533.001 275.574 531.858 274.491L527.937 278.63ZM522.45 269.504L520.488 267.435C519.92 267.973 519.599 268.721 519.599 269.504C519.599 270.287 519.92 271.035 520.488 271.573L522.45 269.504ZM527.937 260.379L520.488 267.435L524.41 271.573L531.858 264.517L527.937 260.379ZM520.488 271.573L527.937 278.63L531.858 274.491L524.41 267.435L520.488 271.573Z" fill="#FC6719"/>
<path d="M535.095 306.134C536.622 306.134 537.859 307.371 537.859 308.898C537.859 310.424 536.622 311.662 535.095 311.662C533.568 311.662 532.331 310.424 532.331 308.898C532.331 307.371 533.568 306.134 535.095 306.134Z" fill="#1C4F4A"/>
<path d="M554.032 306.134C555.559 306.134 556.796 307.371 556.796 308.898C556.796 310.424 555.559 311.662 554.032 311.662C552.505 311.662 551.268 310.424 551.268 308.898C551.268 307.371 552.505 306.134 554.032 306.134Z" fill="#1C4F4A"/>
<path d="M572.973 306.134C574.5 306.134 575.737 307.371 575.737 308.898C575.737 310.424 574.5 311.662 572.973 311.662C571.446 311.662 570.209 310.424 570.209 308.898C570.209 307.371 571.446 306.134 572.973 306.134Z" fill="#1C4F4A"/>
<path d="M528.94 315.253C527.762 315.253 526.808 316.208 526.808 317.386V329.696C526.808 330.874 527.762 331.828 528.94 331.828H541.252C542.428 331.828 543.383 330.874 543.383 329.696V317.386C543.383 316.208 542.428 315.253 541.252 315.253H528.94ZM535.095 326.304C536.621 326.304 537.859 325.067 537.859 323.54C537.859 322.013 536.621 320.777 535.095 320.777C533.568 320.777 532.331 322.013 532.331 323.54C532.331 325.067 533.568 326.304 535.095 326.304Z" fill="#FC6719"/>
<path d="M554.032 320.777C555.559 320.777 556.796 322.014 556.796 323.541C556.796 325.068 555.559 326.305 554.032 326.305C552.505 326.305 551.268 325.068 551.268 323.541C551.268 322.014 552.505 320.777 554.032 320.777Z" fill="#1C4F4A"/>
<path d="M572.973 320.777C574.5 320.777 575.737 322.014 575.737 323.541C575.737 325.068 574.5 326.305 572.973 326.305C571.446 326.305 570.209 325.068 570.209 323.541C570.209 322.014 571.446 320.777 572.973 320.777Z" fill="#1C4F4A"/>
<path d="M535.095 335.422C536.622 335.422 537.859 336.66 537.859 338.186C537.859 339.713 536.622 340.95 535.095 340.95C533.568 340.95 532.331 339.713 532.331 338.186C532.331 336.66 533.568 335.422 535.095 335.422Z" fill="#1C4F4A"/>
<path d="M554.032 335.422C555.559 335.422 556.796 336.66 556.796 338.186C556.796 339.713 555.559 340.95 554.032 340.95C552.505 340.95 551.268 339.713 551.268 338.186C551.268 336.66 552.505 335.422 554.032 335.422Z" fill="#1C4F4A"/>
<path d="M589.461 354.69V297.468C589.461 292.169 585.166 287.874 579.868 287.874H525.419C520.121 287.874 515.826 292.169 515.826 297.468V345.097C515.826 350.396 520.112 354.69 525.41 354.69H568.003C574.642 354.69 577.579 349.46 574.733 337.668C624.592 373.011 664.115 265.82 725.701 265.82C736.299 265.82 711.602 281.796 728.298 281.796C750.559 281.796 876.898 258.007 930.278 215.302" stroke="#1C4F4A" stroke-width="5.70136" stroke-linecap="round" stroke-linejoin="round"/>
<path d="M495.336 450.951V243.86C495.336 239.281 498.959 235.569 503.538 235.569H743.003" stroke="#1C4F4A" stroke-width="5.70136" stroke-linecap="round" stroke-linejoin="round"/>
<path d="M3.42081 408.646C61.9008 400.538 153.319 399.827 265.464 432.58C339.526 454.211 461.816 471.169 495.308 450.903" stroke="#1C4F4A" stroke-width="5.70136" stroke-linecap="round" stroke-linejoin="round"/>
<path d="M702.641 462.79C702.641 479.144 713.487 489.909 718.912 493.246H653.449" stroke="#1C4F4A" stroke-width="5.70136" stroke-linecap="round" stroke-linejoin="round"/>
<path d="M621.535 462.79C621.535 479.144 610.687 489.909 605.264 493.246H670.727" stroke="#1C4F4A" stroke-width="5.70136" stroke-linecap="round" stroke-linejoin="round"/>
<path d="M575.002 452.778H811.112C815.691 452.778 819.404 449.065 819.404 444.486V347.319" stroke="#1C4F4A" stroke-width="5.70136" stroke-linecap="round" stroke-linejoin="round"/>
<path d="M716.957 407.696H518.632C516.597 407.696 514.947 406.046 514.947 404.01V253.983C514.947 251.948 516.597 250.298 518.632 250.298H744.116" stroke="#1C4F4A" stroke-width="5.70136" stroke-linecap="round" stroke-linejoin="round"/>
<path d="M589.453 373.792V402.442" stroke="#1C4F4A" stroke-width="5.70136" stroke-linecap="round"/>
<path d="M589.453 279.56V250.909" stroke="#1C4F4A" stroke-width="5.70136" stroke-linecap="round"/>
<path d="M838.89 0H937.293C939.795 0 941.823 2.02968 941.823 4.53144V25.3425C941.823 27.8443 939.795 29.8728 937.293 29.8728H838.89C836.388 29.8728 834.359 27.8443 834.359 25.3425V4.53144C834.359 2.02968 836.388 0 838.89 0Z" fill="#FFB130"/>
<path d="M825.489 78.9211C827.366 78.9211 828.887 80.4423 828.887 82.3192C828.887 84.196 827.366 85.7172 825.489 85.7172C823.612 85.7172 822.091 84.196 822.091 82.3192C822.091 80.4423 823.612 78.9211 825.489 78.9211Z" fill="#1C4F4A"/>
<path d="M852.321 78.9211C854.198 78.9211 855.719 80.4423 855.719 82.3192C855.719 84.196 854.198 85.7172 852.321 85.7172C850.444 85.7172 848.923 84.196 848.923 82.3192C848.923 80.4423 850.444 78.9211 852.321 78.9211Z" fill="#1C4F4A"/>
<path d="M879.155 78.9211C881.032 78.9211 882.553 80.4423 882.553 82.3192C882.553 84.196 881.032 85.7172 879.155 85.7172C877.278 85.7172 875.757 84.196 875.757 82.3192C875.757 80.4423 877.278 78.9211 879.155 78.9211Z" fill="#1C4F4A"/>
<path d="M816.39 90.9497C814.722 90.9497 813.369 92.3009 813.369 93.9691V111.412C813.369 113.08 814.722 114.432 816.39 114.432H833.832C835.5 114.432 836.852 113.08 836.852 111.412V93.9691C836.852 92.3009 835.5 90.9497 833.832 90.9497H816.39ZM825.489 106.467C827.366 106.467 828.887 104.945 828.887 103.069C828.887 101.192 827.366 99.6705 825.489 99.6705C823.612 99.6705 822.091 101.192 822.091 103.069C822.091 104.945 823.612 106.467 825.489 106.467Z" fill="#FC6719"/>
<path d="M852.321 99.6682C854.198 99.6682 855.719 101.189 855.719 103.066C855.719 104.943 854.198 106.464 852.321 106.464C850.444 106.464 848.923 104.943 848.923 103.066C848.923 101.189 850.444 99.6682 852.321 99.6682Z" fill="#1C4F4A"/>
<path d="M879.155 99.6682C881.032 99.6682 882.553 101.189 882.553 103.066C882.553 104.943 881.032 106.464 879.155 106.464C877.278 106.464 875.757 104.943 875.757 103.066C875.757 101.189 877.278 99.6682 879.155 99.6682Z" fill="#1C4F4A"/>
<path d="M825.489 120.417C827.366 120.417 828.887 121.938 828.887 123.815C828.887 125.691 827.366 127.213 825.489 127.213C823.612 127.213 822.091 125.691 822.091 123.815C822.091 121.938 823.612 120.417 825.489 120.417Z" fill="#1C4F4A"/>
<path d="M852.321 120.417C854.198 120.417 855.719 121.938 855.719 123.815C855.719 125.691 854.198 127.213 852.321 127.213C850.444 127.213 848.923 125.691 848.923 123.815C848.923 121.938 850.444 120.417 852.321 120.417Z" fill="#1C4F4A"/>
<path d="M785.948 60.9984C787.092 59.9151 787.14 58.1112 786.058 56.9687C784.974 55.8261 783.17 55.7771 782.027 56.8592L785.948 60.9984ZM782.027 80.9919C783.17 82.074 784.974 82.0261 786.058 80.8824C787.14 79.7399 787.092 77.936 785.948 76.8527L782.027 80.9919ZM773.436 68.9255L771.476 66.856C770.907 67.3942 770.585 68.1433 770.585 68.9255C770.585 69.7089 770.907 70.4569 771.476 70.9951L773.436 68.9255ZM782.027 56.8592L771.476 66.856L775.396 70.9951L785.948 60.9984L782.027 56.8592ZM771.476 70.9951L782.027 80.9919L785.948 76.8527L775.396 66.856L771.476 70.9951Z" fill="#FC6719"/>
<path d="M903.033 146.822V65.7489C903.033 58.2425 896.949 52.1558 889.443 52.1558H812.3C804.795 52.1558 798.709 58.2425 798.709 65.7489V133.231C798.709 140.738 804.781 146.822 812.287 146.822H872.633C882.04 146.822 885.723 140.032 882.348 135.145C878.973 130.256 868.863 130.435 863.392 136.669C857.921 142.903 860.78 156.955 879.084 160.216C901.966 164.291 940.206 152.464 955.205 167.672C964.719 177.317 957.148 193.869 953.374 196.963" stroke="#1C4F4A" stroke-width="5.70136" stroke-linecap="round" stroke-linejoin="round"/>
<path d="M867.893 52.0055V12.9364C867.893 9.59999 870.597 6.89526 873.933 6.89526H946.871C950.208 6.89526 952.911 9.59999 952.911 12.9364V96.6506C952.911 99.987 950.208 102.692 946.871 102.692H903.055" stroke="#1C4F4A" stroke-width="5.70136"/>
<path d="M891.405 21.5442H929.158" stroke="#1C4F4A" stroke-width="5.70136" stroke-linecap="round"/>
<path d="M903.73 68.9255H952.633" stroke="#1C4F4A" stroke-width="5.70136" stroke-linecap="round"/>
<path d="M867.931 36.4189H952.634" stroke="#1C4F4A" stroke-width="5.70136" stroke-linecap="round"/>
</g>
</svg>
