<svg width="175" height="32" viewBox="0 0 175 32" fill="none" xmlns="http://www.w3.org/2000/svg">
<g clip-path="url(#clip0_1_8)">
<path d="M19.4733 15.5787C19.4733 17.7298 17.7297 19.4734 15.5786 19.4734C13.4276 19.4734 11.684 17.7298 11.684 15.5787C11.684 13.4277 13.4276 11.6841 15.5786 11.6841C17.7297 11.6841 19.4733 13.4277 19.4733 15.5787Z" fill="#FC6719"/>
<path d="M31.1573 15.5787C31.1573 17.7298 29.4136 19.4734 27.2626 19.4734C25.1116 19.4734 23.368 17.7298 23.368 15.5787C23.368 13.4277 25.1116 11.6841 27.2626 11.6841C29.4136 11.6841 31.1573 13.4277 31.1573 15.5787Z" fill="#FC6719"/>
<path d="M19.4733 27.2626C19.4733 29.4136 17.7297 31.1572 15.5786 31.1572C13.4276 31.1572 11.684 29.4136 11.684 27.2626C11.684 25.1116 13.4276 23.3679 15.5786 23.3679C17.7297 23.3679 19.4733 25.1116 19.4733 27.2626Z" fill="#FC6719"/>
<path d="M19.4733 3.89466C19.4733 6.04561 17.7297 7.78932 15.5786 7.78932C13.4276 7.78932 11.684 6.04561 11.684 3.89466C11.684 1.7437 13.4276 0 15.5786 0C17.7297 0 19.4733 1.7437 19.4733 3.89466Z" fill="#FC6719"/>
<path d="M31.1573 3.89466C31.1573 6.04561 29.4136 7.78932 27.2626 7.78932C25.1116 7.78932 23.368 6.04561 23.368 3.89466C23.368 1.7437 25.1116 0 27.2626 0C29.4136 0 31.1573 1.7437 31.1573 3.89466Z" fill="#FC6719"/>
<path d="M7.78932 15.5787C7.78932 17.7298 6.04561 19.4734 3.89466 19.4734C1.7437 19.4734 0 17.7298 0 15.5787C0 13.4277 1.7437 11.6841 3.89466 11.6841C6.04561 11.6841 7.78932 13.4277 7.78932 15.5787Z" fill="#FC6719"/>
<path d="M7.78932 27.2626C7.78932 29.4136 6.04561 31.1572 3.89466 31.1572C1.7437 31.1572 0 29.4136 0 27.2626C0 25.1116 1.7437 23.3679 3.89466 23.3679C6.04561 23.3679 7.78932 25.1116 7.78932 27.2626Z" fill="#FC6719"/>
<path d="M58.6619 13.4347H55.4744C55.3835 12.9119 55.2159 12.4489 54.9716 12.0455C54.7273 11.6364 54.4233 11.2898 54.0597 11.0057C53.696 10.7216 53.2813 10.5085 52.8153 10.3665C52.3551 10.2188 51.858 10.1449 51.3239 10.1449C50.375 10.1449 49.5341 10.3835 48.8011 10.8608C48.0682 11.3324 47.4943 12.0256 47.0795 12.9403C46.6648 13.8494 46.4574 14.9602 46.4574 16.2727C46.4574 17.608 46.6648 18.733 47.0795 19.6477C47.5 20.5568 48.0739 21.2443 48.8011 21.7102C49.5341 22.1705 50.3722 22.4006 51.3153 22.4006C51.8381 22.4006 52.3267 22.3324 52.7812 22.196C53.2415 22.054 53.6534 21.8466 54.017 21.5739C54.3864 21.3011 54.696 20.9659 54.946 20.5682C55.2017 20.1705 55.3778 19.7159 55.4744 19.2045L58.6619 19.2216C58.5426 20.0511 58.2841 20.8295 57.8864 21.5568C57.4943 22.2841 56.9801 22.9261 56.3438 23.483C55.7074 24.0341 54.9631 24.4659 54.1108 24.7784C53.2585 25.0852 52.3125 25.2386 51.2727 25.2386C49.7386 25.2386 48.3693 24.8835 47.1648 24.1733C45.9602 23.4631 45.0114 22.4375 44.3182 21.0966C43.625 19.7557 43.2784 18.1477 43.2784 16.2727C43.2784 14.392 43.6278 12.7841 44.3267 11.4489C45.0256 10.108 45.9773 9.08239 47.1818 8.37216C48.3864 7.66193 49.75 7.30682 51.2727 7.30682C52.2443 7.30682 53.1477 7.44318 53.983 7.71591C54.8182 7.98864 55.5625 8.3892 56.2159 8.91761C56.8693 9.44034 57.4063 10.0824 57.8267 10.8438C58.2528 11.5994 58.5313 12.4631 58.6619 13.4347ZM64.5064 7.54545V25H61.4212V7.54545H64.5064ZM73.3892 25.2557C72.1108 25.2557 71.0028 24.9744 70.0653 24.4119C69.1278 23.8494 68.4006 23.0625 67.8835 22.0511C67.3722 21.0398 67.1165 19.858 67.1165 18.5057C67.1165 17.1534 67.3722 15.9687 67.8835 14.9517C68.4006 13.9347 69.1278 13.1449 70.0653 12.5824C71.0028 12.0199 72.1108 11.7386 73.3892 11.7386C74.6676 11.7386 75.7756 12.0199 76.7131 12.5824C77.6506 13.1449 78.375 13.9347 78.8864 14.9517C79.4034 15.9687 79.6619 17.1534 79.6619 18.5057C79.6619 19.858 79.4034 21.0398 78.8864 22.0511C78.375 23.0625 77.6506 23.8494 76.7131 24.4119C75.7756 24.9744 74.6676 25.2557 73.3892 25.2557ZM73.4062 22.7841C74.0994 22.7841 74.679 22.5937 75.1449 22.2131C75.6108 21.8267 75.9574 21.3097 76.1847 20.6619C76.4176 20.0142 76.5341 19.2926 76.5341 18.4972C76.5341 17.696 76.4176 16.9716 76.1847 16.3239C75.9574 15.6705 75.6108 15.1506 75.1449 14.7642C74.679 14.3778 74.0994 14.1847 73.4062 14.1847C72.696 14.1847 72.1051 14.3778 71.6335 14.7642C71.1676 15.1506 70.8182 15.6705 70.5852 16.3239C70.358 16.9716 70.2443 17.696 70.2443 18.4972C70.2443 19.2926 70.358 20.0142 70.5852 20.6619C70.8182 21.3097 71.1676 21.8267 71.6335 22.2131C72.1051 22.5937 72.696 22.7841 73.4062 22.7841ZM90.6243 19.4943V11.9091H93.7095V25H90.718V22.6733H90.5817C90.2862 23.4062 89.8004 24.0057 89.1243 24.4716C88.4538 24.9375 87.6271 25.1705 86.6442 25.1705C85.7862 25.1705 85.0277 24.9801 84.3686 24.5994C83.7152 24.2131 83.2038 23.6534 82.8345 22.9205C82.4652 22.1818 82.2805 21.2898 82.2805 20.2443V11.9091H85.3658V19.767C85.3658 20.5966 85.593 21.2557 86.0476 21.7443C86.5021 22.233 87.0987 22.4773 87.8374 22.4773C88.2919 22.4773 88.7322 22.3665 89.1584 22.1449C89.5845 21.9233 89.9339 21.5938 90.2067 21.1562C90.4851 20.7131 90.6243 20.1591 90.6243 19.4943ZM101.74 25.2301C100.712 25.2301 99.7912 24.9659 98.9787 24.4375C98.1662 23.9091 97.5241 23.142 97.0526 22.1364C96.581 21.1307 96.3452 19.9091 96.3452 18.4716C96.3452 17.017 96.5838 15.7898 97.0611 14.7898C97.544 13.7841 98.1946 13.0256 99.0128 12.5142C99.831 11.9972 100.743 11.7386 101.749 11.7386C102.516 11.7386 103.146 11.8693 103.641 12.1307C104.135 12.3864 104.527 12.696 104.817 13.0597C105.107 13.4176 105.331 13.7557 105.49 14.0739H105.618V7.54545H108.712V25H105.678V22.9375H105.49C105.331 23.2557 105.101 23.5937 104.8 23.9517C104.499 24.304 104.101 24.6051 103.607 24.8551C103.112 25.1051 102.49 25.2301 101.74 25.2301ZM102.601 22.6989C103.254 22.6989 103.811 22.5227 104.271 22.1705C104.732 21.8125 105.081 21.3153 105.32 20.679C105.558 20.0426 105.678 19.3011 105.678 18.4545C105.678 17.608 105.558 16.8722 105.32 16.2472C105.087 15.6222 104.74 15.1364 104.28 14.7898C103.825 14.4432 103.266 14.2699 102.601 14.2699C101.913 14.2699 101.339 14.4489 100.879 14.8068C100.419 15.1648 100.072 15.6591 99.8395 16.2898C99.6065 16.9205 99.4901 17.642 99.4901 18.4545C99.4901 19.2727 99.6065 20.0028 99.8395 20.6449C100.078 21.2812 100.428 21.7841 100.888 22.1534C101.354 22.517 101.925 22.6989 102.601 22.6989ZM115.809 25L110.883 7.54545H114.283L117.428 20.3722H117.59L120.948 7.54545H124.042L127.408 20.3807H127.562L130.707 7.54545H134.107L129.181 25H126.062L122.567 12.7528H122.431L118.928 25H115.809ZM138.594 25.2642C137.765 25.2642 137.018 25.1165 136.353 24.821C135.694 24.5199 135.171 24.0767 134.785 23.4915C134.404 22.9062 134.214 22.1847 134.214 21.3267C134.214 20.5881 134.35 19.9773 134.623 19.4943C134.896 19.0114 135.268 18.625 135.739 18.3352C136.211 18.0455 136.742 17.8267 137.333 17.679C137.93 17.5256 138.546 17.4148 139.183 17.3466C139.95 17.267 140.572 17.196 141.049 17.1335C141.526 17.0653 141.873 16.9631 142.089 16.8267C142.31 16.6847 142.421 16.4659 142.421 16.1705V16.1193C142.421 15.4773 142.231 14.9801 141.85 14.6278C141.469 14.2756 140.921 14.0994 140.205 14.0994C139.45 14.0994 138.85 14.2642 138.407 14.5938C137.969 14.9233 137.674 15.3125 137.521 15.7614L134.64 15.3523C134.867 14.5568 135.242 13.892 135.765 13.358C136.288 12.8182 136.927 12.4148 137.683 12.1477C138.438 11.875 139.273 11.7386 140.188 11.7386C140.819 11.7386 141.447 11.8125 142.072 11.9602C142.697 12.108 143.268 12.3523 143.785 12.6932C144.302 13.0284 144.717 13.4858 145.029 14.0653C145.347 14.6449 145.506 15.3693 145.506 16.2386V25H142.54V23.2017H142.438C142.251 23.5653 141.987 23.9062 141.646 24.2244C141.31 24.5369 140.887 24.7898 140.376 24.983C139.87 25.1705 139.276 25.2642 138.594 25.2642ZM139.396 22.9972C140.015 22.9972 140.552 22.875 141.006 22.6307C141.461 22.3807 141.81 22.0511 142.055 21.642C142.305 21.233 142.43 20.7869 142.43 20.304V18.7614C142.333 18.8409 142.168 18.9148 141.935 18.983C141.708 19.0511 141.452 19.1108 141.168 19.1619C140.884 19.2131 140.603 19.2585 140.325 19.2983C140.046 19.3381 139.805 19.3722 139.6 19.4006C139.14 19.4631 138.728 19.5653 138.364 19.7074C138.001 19.8494 137.714 20.0483 137.504 20.304C137.293 20.554 137.188 20.8778 137.188 21.2756C137.188 21.8438 137.396 22.2727 137.81 22.5625C138.225 22.8523 138.754 22.9972 139.396 22.9972ZM159.833 11.9091L155.171 25H151.762L147.1 11.9091H150.39L153.398 21.6335H153.535L156.552 11.9091H159.833ZM167.318 25.2557C166.006 25.2557 164.872 24.983 163.918 24.4375C162.969 23.8864 162.239 23.108 161.727 22.1023C161.216 21.0909 160.96 19.9006 160.96 18.5312C160.96 17.1847 161.216 16.0028 161.727 14.9858C162.244 13.9631 162.966 13.1676 163.892 12.5994C164.818 12.0256 165.906 11.7386 167.156 11.7386C167.963 11.7386 168.724 11.8693 169.44 12.1307C170.162 12.3864 170.798 12.7841 171.349 13.3239C171.906 13.8636 172.344 14.5511 172.662 15.3864C172.98 16.2159 173.139 17.2045 173.139 18.3523V19.2983H162.409V17.2188H170.182C170.176 16.6278 170.048 16.1023 169.798 15.642C169.548 15.1761 169.199 14.8097 168.75 14.5426C168.307 14.2756 167.79 14.142 167.199 14.142C166.568 14.142 166.014 14.2955 165.537 14.6023C165.06 14.9034 164.688 15.3011 164.42 15.7955C164.159 16.2841 164.026 16.821 164.02 17.4062V19.2216C164.02 19.983 164.159 20.6364 164.438 21.1818C164.716 21.7216 165.105 22.1364 165.605 22.4261C166.105 22.7102 166.69 22.8523 167.361 22.8523C167.81 22.8523 168.216 22.7898 168.58 22.6648C168.943 22.5341 169.259 22.3438 169.526 22.0938C169.793 21.8438 169.994 21.5341 170.131 21.1648L173.011 21.4886C172.83 22.25 172.483 22.9148 171.972 23.483C171.466 24.0455 170.818 24.483 170.028 24.7955C169.239 25.1023 168.335 25.2557 167.318 25.2557Z" fill="#1C4F4A"/>
</g>
<defs>
<clipPath id="clip0_1_8">
<rect width="175" height="31.1573" fill="white"/>
</clipPath>
</defs>
</svg>
