<svg width="206" height="50" viewBox="0 0 206 50" fill="none" xmlns="http://www.w3.org/2000/svg">
<path d="M74.6136 40H65.196V10.9091H74.9119C77.7623 10.9091 80.2102 11.4915 82.2557 12.6562C84.3011 13.8116 85.8684 15.4735 86.9574 17.642C88.0559 19.8011 88.6051 22.3911 88.6051 25.4119C88.6051 28.4422 88.0511 31.0464 86.9432 33.2244C85.8447 35.4025 84.2538 37.0786 82.1705 38.2528C80.0871 39.4176 77.5682 40 74.6136 40ZM69.5852 36.1648H74.3722C76.5881 36.1648 78.4299 35.7481 79.8977 34.9148C81.3655 34.072 82.464 32.8551 83.1932 31.2642C83.9223 29.6638 84.2869 27.7131 84.2869 25.4119C84.2869 23.1297 83.9223 21.1932 83.1932 19.6023C82.4735 18.0114 81.3987 16.804 79.9688 15.9801C78.5388 15.1562 76.7633 14.7443 74.642 14.7443H69.5852V36.1648ZM93.7223 40V18.1818H97.9695V40H93.7223ZM95.8672 14.8153C95.1286 14.8153 94.4941 14.5691 93.9638 14.0767C93.4429 13.5748 93.1825 12.9782 93.1825 12.2869C93.1825 11.5862 93.4429 10.9896 93.9638 10.4972C94.4941 9.99526 95.1286 9.74432 95.8672 9.74432C96.6058 9.74432 97.2356 9.99526 97.7564 10.4972C98.2867 10.9896 98.5518 11.5862 98.5518 12.2869C98.5518 12.9782 98.2867 13.5748 97.7564 14.0767C97.2356 14.5691 96.6058 14.8153 95.8672 14.8153ZM120.033 23.5085L116.183 24.1903C116.022 23.6979 115.767 23.2292 115.416 22.7841C115.075 22.339 114.611 21.9744 114.024 21.6903C113.437 21.4062 112.703 21.2642 111.822 21.2642C110.62 21.2642 109.616 21.5341 108.811 22.0739C108.006 22.6042 107.604 23.2907 107.604 24.1335C107.604 24.8627 107.874 25.4498 108.413 25.8949C108.953 26.34 109.824 26.7045 111.027 26.9886L114.493 27.7841C116.5 28.2481 117.997 28.9631 118.982 29.929C119.966 30.8949 120.459 32.1496 120.459 33.6932C120.459 35 120.08 36.1648 119.322 37.1875C118.574 38.2008 117.528 38.9962 116.183 39.5739C114.848 40.1515 113.3 40.4403 111.538 40.4403C109.095 40.4403 107.102 39.9195 105.558 38.8778C104.015 37.8267 103.068 36.3352 102.717 34.4034L106.822 33.7784C107.078 34.8485 107.604 35.6581 108.399 36.2074C109.195 36.7472 110.232 37.017 111.51 37.017C112.902 37.017 114.015 36.7282 114.848 36.1506C115.681 35.5634 116.098 34.8485 116.098 34.0057C116.098 33.3239 115.842 32.7509 115.331 32.2869C114.829 31.8229 114.057 31.4725 113.016 31.2358L109.322 30.4261C107.286 29.9621 105.781 29.2235 104.805 28.2102C103.839 27.197 103.357 25.9138 103.357 24.3608C103.357 23.0729 103.716 21.946 104.436 20.9801C105.156 20.0142 106.15 19.2614 107.419 18.7216C108.688 18.1723 110.142 17.8977 111.78 17.8977C114.138 17.8977 115.994 18.4091 117.348 19.4318C118.702 20.4451 119.597 21.804 120.033 23.5085ZM134.319 40.4403C132.207 40.4403 130.389 39.9621 128.864 39.0057C127.349 38.0398 126.184 36.7093 125.37 35.0142C124.556 33.3191 124.148 31.3778 124.148 29.1903C124.148 26.9744 124.565 25.0189 125.398 23.3239C126.232 21.6193 127.406 20.2888 128.921 19.3324C130.436 18.3759 132.221 17.8977 134.276 17.8977C135.933 17.8977 137.411 18.2055 138.708 18.821C140.005 19.4271 141.052 20.2794 141.847 21.3778C142.652 22.4763 143.13 23.7595 143.282 25.2273H139.148C138.921 24.2045 138.4 23.3239 137.586 22.5852C136.781 21.8466 135.701 21.4773 134.347 21.4773C133.164 21.4773 132.127 21.7898 131.237 22.4148C130.356 23.0303 129.669 23.911 129.177 25.0568C128.684 26.1932 128.438 27.5379 128.438 29.0909C128.438 30.6818 128.68 32.0549 129.163 33.2102C129.646 34.3655 130.327 35.2604 131.208 35.8949C132.098 36.5294 133.145 36.8466 134.347 36.8466C135.152 36.8466 135.881 36.6998 136.535 36.4062C137.198 36.1032 137.752 35.6723 138.197 35.1136C138.651 34.5549 138.969 33.8826 139.148 33.0966H143.282C143.13 34.5076 142.671 35.767 141.904 36.875C141.137 37.983 140.11 38.8542 138.822 39.4886C137.543 40.1231 136.042 40.4403 134.319 40.4403ZM157.014 40.4403C154.969 40.4403 153.184 39.9716 151.659 39.0341C150.134 38.0966 148.951 36.785 148.108 35.0994C147.265 33.4138 146.844 31.4441 146.844 29.1903C146.844 26.9271 147.265 24.9479 148.108 23.2528C148.951 21.5578 150.134 20.2415 151.659 19.304C153.184 18.3665 154.969 17.8977 157.014 17.8977C159.06 17.8977 160.845 18.3665 162.369 19.304C163.894 20.2415 165.078 21.5578 165.92 23.2528C166.763 24.9479 167.185 26.9271 167.185 29.1903C167.185 31.4441 166.763 33.4138 165.92 35.0994C165.078 36.785 163.894 38.0966 162.369 39.0341C160.845 39.9716 159.06 40.4403 157.014 40.4403ZM157.028 36.875C158.354 36.875 159.453 36.5246 160.324 35.8239C161.195 35.1231 161.839 34.1903 162.256 33.0256C162.682 31.8608 162.895 30.5777 162.895 29.1761C162.895 27.7841 162.682 26.5057 162.256 25.3409C161.839 24.1667 161.195 23.2244 160.324 22.5142C159.453 21.804 158.354 21.4489 157.028 21.4489C155.693 21.4489 154.585 21.804 153.705 22.5142C152.833 23.2244 152.185 24.1667 151.759 25.3409C151.342 26.5057 151.134 27.7841 151.134 29.1761C151.134 30.5777 151.342 31.8608 151.759 33.0256C152.185 34.1903 152.833 35.1231 153.705 35.8239C154.585 36.5246 155.693 36.875 157.028 36.875ZM171.925 40V18.1818H176.031V21.6477H176.258C176.656 20.4735 177.356 19.5502 178.36 18.8778C179.373 18.196 180.519 17.8551 181.798 17.8551C182.063 17.8551 182.375 17.8646 182.735 17.8835C183.104 17.9025 183.393 17.9261 183.602 17.9545V22.017C183.431 21.9697 183.128 21.9176 182.692 21.8608C182.257 21.7945 181.821 21.7614 181.386 21.7614C180.382 21.7614 179.487 21.9744 178.701 22.4006C177.924 22.8172 177.309 23.3996 176.854 24.1477C176.4 24.8864 176.173 25.7292 176.173 26.6761V40H171.925ZM194.663 40.4261C192.902 40.4261 191.33 39.9763 189.947 39.0767C188.574 38.1676 187.495 36.875 186.709 35.1989C185.932 33.5133 185.544 31.4915 185.544 29.1335C185.544 26.7756 185.937 24.7585 186.723 23.0824C187.518 21.4062 188.607 20.1231 189.99 19.233C191.373 18.3428 192.94 17.8977 194.692 17.8977C196.046 17.8977 197.135 18.125 197.959 18.5795C198.792 19.0246 199.436 19.5455 199.891 20.142C200.355 20.7386 200.714 21.2642 200.97 21.7188H201.226V10.9091H205.473V40H201.325V36.6051H200.97C200.714 37.0691 200.345 37.5994 199.862 38.196C199.389 38.7926 198.735 39.3134 197.902 39.7585C197.069 40.2036 195.989 40.4261 194.663 40.4261ZM195.601 36.804C196.822 36.804 197.855 36.482 198.697 35.8381C199.55 35.1847 200.194 34.2803 200.629 33.125C201.074 31.9697 201.297 30.625 201.297 29.0909C201.297 27.5758 201.079 26.25 200.643 25.1136C200.208 23.9773 199.569 23.0919 198.726 22.4574C197.883 21.8229 196.841 21.5057 195.601 21.5057C194.322 21.5057 193.257 21.8371 192.405 22.5C191.553 23.1629 190.909 24.0672 190.473 25.2131C190.047 26.3589 189.834 27.6515 189.834 29.0909C189.834 30.5492 190.052 31.8608 190.487 33.0256C190.923 34.1903 191.567 35.1136 192.419 35.7955C193.281 36.4678 194.341 36.804 195.601 36.804Z" fill="#F5F3EE"/>
<rect width="50" height="50" fill="#F5F3EE"/>
</svg>
