<svg width="250" height="50" viewBox="0 0 250 50" fill="none" xmlns="http://www.w3.org/2000/svg">
<path d="M65.196 40V10.9091H83.2358V14.6875H69.5852V23.5511H81.9432V27.3153H69.5852V40H65.196ZM94.5639 40.483C93.1813 40.483 91.9313 40.2273 90.8139 39.7159C89.6965 39.1951 88.8111 38.4422 88.1577 37.4574C87.5137 36.4725 87.1918 35.2652 87.1918 33.8352C87.1918 32.6042 87.4285 31.5909 87.902 30.7955C88.3755 30 89.0147 29.3703 89.8196 28.9062C90.6245 28.4422 91.5241 28.0919 92.5185 27.8551C93.5128 27.6184 94.526 27.4384 95.5582 27.3153C96.8651 27.1638 97.9257 27.0407 98.7401 26.946C99.5545 26.8419 100.146 26.6761 100.516 26.4489C100.885 26.2216 101.07 25.8523 101.07 25.3409V25.2415C101.07 24.0009 100.719 23.0398 100.018 22.358C99.3272 21.6761 98.295 21.3352 96.9219 21.3352C95.492 21.3352 94.3651 21.6525 93.5412 22.2869C92.7268 22.9119 92.1634 23.608 91.8509 24.375L87.8594 23.4659C88.3329 22.1402 89.0241 21.0701 89.9332 20.2557C90.8518 19.4318 91.9077 18.8352 93.1009 18.4659C94.294 18.0871 95.5488 17.8977 96.8651 17.8977C97.7363 17.8977 98.6596 18.0019 99.6349 18.2102C100.62 18.4091 101.538 18.7784 102.391 19.3182C103.252 19.858 103.958 20.6297 104.507 21.6335C105.056 22.6278 105.331 23.9205 105.331 25.5114V40H101.183V37.017H101.013C100.738 37.5663 100.326 38.1061 99.777 38.6364C99.2277 39.1667 98.5223 39.607 97.6605 39.9574C96.7988 40.3078 95.7666 40.483 94.5639 40.483ZM95.4872 37.0739C96.6615 37.0739 97.6652 36.8419 98.4986 36.3778C99.3414 35.9138 99.9806 35.3078 100.416 34.5597C100.861 33.8021 101.084 32.9924 101.084 32.1307V29.3182C100.932 29.4697 100.639 29.6117 100.203 29.7443C99.777 29.8674 99.2893 29.9763 98.7401 30.071C98.1908 30.1562 97.6558 30.2367 97.1349 30.3125C96.6141 30.3788 96.1785 30.4356 95.8281 30.483C95.0043 30.5871 94.2514 30.7623 93.5696 31.0085C92.8973 31.2547 92.3575 31.6098 91.9503 32.0739C91.5526 32.5284 91.3537 33.1345 91.3537 33.892C91.3537 34.9432 91.742 35.7386 92.5185 36.2784C93.295 36.8087 94.2846 37.0739 95.4872 37.0739ZM120.178 40.4403C118.067 40.4403 116.248 39.9621 114.724 39.0057C113.209 38.0398 112.044 36.7093 111.229 35.0142C110.415 33.3191 110.008 31.3778 110.008 29.1903C110.008 26.9744 110.424 25.0189 111.258 23.3239C112.091 21.6193 113.265 20.2888 114.781 19.3324C116.296 18.3759 118.081 17.8977 120.136 17.8977C121.793 17.8977 123.27 18.2055 124.567 18.821C125.865 19.4271 126.911 20.2794 127.707 21.3778C128.512 22.4763 128.99 23.7595 129.141 25.2273H125.008C124.781 24.2045 124.26 23.3239 123.445 22.5852C122.64 21.8466 121.561 21.4773 120.207 21.4773C119.023 21.4773 117.986 21.7898 117.096 22.4148C116.215 23.0303 115.529 23.911 115.036 25.0568C114.544 26.1932 114.298 27.5379 114.298 29.0909C114.298 30.6818 114.539 32.0549 115.022 33.2102C115.505 34.3655 116.187 35.2604 117.067 35.8949C117.958 36.5294 119.004 36.8466 120.207 36.8466C121.012 36.8466 121.741 36.6998 122.394 36.4062C123.057 36.1032 123.611 35.6723 124.056 35.1136C124.511 34.5549 124.828 33.8826 125.008 33.0966H129.141C128.99 34.5076 128.531 35.767 127.763 36.875C126.996 37.983 125.969 38.8542 124.681 39.4886C123.403 40.1231 121.902 40.4403 120.178 40.4403ZM143.087 40.4403C140.937 40.4403 139.086 39.9811 137.533 39.0625C135.989 38.1345 134.796 36.8324 133.953 35.1562C133.12 33.4706 132.703 31.4962 132.703 29.233C132.703 26.9981 133.12 25.0284 133.953 23.3239C134.796 21.6193 135.97 20.2888 137.476 19.3324C138.991 18.3759 140.762 17.8977 142.788 17.8977C144.019 17.8977 145.213 18.1013 146.368 18.5085C147.523 18.9157 148.56 19.5549 149.479 20.4261C150.397 21.2973 151.122 22.429 151.652 23.821C152.182 25.2036 152.447 26.8845 152.447 28.8636V30.3693H135.104V27.1875H148.286C148.286 26.0701 148.058 25.0805 147.604 24.2188C147.149 23.3475 146.51 22.661 145.686 22.1591C144.872 21.6572 143.915 21.4062 142.817 21.4062C141.624 21.4062 140.582 21.6998 139.692 22.2869C138.811 22.8646 138.129 23.6222 137.646 24.5597C137.173 25.4877 136.936 26.4962 136.936 27.5852V30.071C136.936 31.5294 137.192 32.7699 137.703 33.7926C138.224 34.8153 138.948 35.5966 139.876 36.1364C140.804 36.6667 141.889 36.9318 143.129 36.9318C143.934 36.9318 144.668 36.8182 145.331 36.5909C145.994 36.3542 146.567 36.0038 147.05 35.5398C147.533 35.0758 147.902 34.5028 148.158 33.821L152.178 34.5455C151.856 35.7292 151.278 36.7661 150.445 37.6562C149.621 38.5369 148.584 39.2235 147.334 39.7159C146.093 40.1989 144.678 40.4403 143.087 40.4403ZM157.501 40V10.9091H161.748V21.7188H162.004C162.25 21.2642 162.605 20.7386 163.069 20.142C163.533 19.5455 164.177 19.0246 165.001 18.5795C165.825 18.125 166.914 17.8977 168.268 17.8977C170.029 17.8977 171.601 18.3428 172.984 19.233C174.366 20.1231 175.451 21.4062 176.237 23.0824C177.032 24.7585 177.43 26.7756 177.43 29.1335C177.43 31.4915 177.037 33.5133 176.251 35.1989C175.465 36.875 174.385 38.1676 173.012 39.0767C171.639 39.9763 170.072 40.4261 168.31 40.4261C166.985 40.4261 165.9 40.2036 165.058 39.7585C164.224 39.3134 163.571 38.7926 163.097 38.196C162.624 37.5994 162.259 37.0691 162.004 36.6051H161.648V40H157.501ZM161.663 29.0909C161.663 30.625 161.885 31.9697 162.33 33.125C162.775 34.2803 163.419 35.1847 164.262 35.8381C165.105 36.482 166.137 36.804 167.359 36.804C168.628 36.804 169.688 36.4678 170.54 35.7955C171.393 35.1136 172.037 34.1903 172.472 33.0256C172.917 31.8608 173.14 30.5492 173.14 29.0909C173.14 27.6515 172.922 26.3589 172.487 25.2131C172.06 24.0672 171.416 23.1629 170.555 22.5C169.702 21.8371 168.637 21.5057 167.359 21.5057C166.128 21.5057 165.086 21.8229 164.234 22.4574C163.391 23.0919 162.752 23.9773 162.316 25.1136C161.88 26.25 161.663 27.5758 161.663 29.0909ZM191.389 40.4403C189.344 40.4403 187.559 39.9716 186.034 39.0341C184.509 38.0966 183.326 36.785 182.483 35.0994C181.64 33.4138 181.219 31.4441 181.219 29.1903C181.219 26.9271 181.64 24.9479 182.483 23.2528C183.326 21.5578 184.509 20.2415 186.034 19.304C187.559 18.3665 189.344 17.8977 191.389 17.8977C193.435 17.8977 195.22 18.3665 196.744 19.304C198.269 20.2415 199.453 21.5578 200.295 23.2528C201.138 24.9479 201.56 26.9271 201.56 29.1903C201.56 31.4441 201.138 33.4138 200.295 35.0994C199.453 36.785 198.269 38.0966 196.744 39.0341C195.22 39.9716 193.435 40.4403 191.389 40.4403ZM191.403 36.875C192.729 36.875 193.828 36.5246 194.699 35.8239C195.57 35.1231 196.214 34.1903 196.631 33.0256C197.057 31.8608 197.27 30.5777 197.27 29.1761C197.27 27.7841 197.057 26.5057 196.631 25.3409C196.214 24.1667 195.57 23.2244 194.699 22.5142C193.828 21.804 192.729 21.4489 191.403 21.4489C190.068 21.4489 188.96 21.804 188.08 22.5142C187.208 23.2244 186.56 24.1667 186.134 25.3409C185.717 26.5057 185.509 27.7841 185.509 29.1761C185.509 30.5777 185.717 31.8608 186.134 33.0256C186.56 34.1903 187.208 35.1231 188.08 35.8239C188.96 36.5246 190.068 36.875 191.403 36.875ZM215.491 40.4403C213.445 40.4403 211.66 39.9716 210.136 39.0341C208.611 38.0966 207.427 36.785 206.585 35.0994C205.742 33.4138 205.32 31.4441 205.32 29.1903C205.32 26.9271 205.742 24.9479 206.585 23.2528C207.427 21.5578 208.611 20.2415 210.136 19.304C211.66 18.3665 213.445 17.8977 215.491 17.8977C217.536 17.8977 219.321 18.3665 220.846 19.304C222.371 20.2415 223.554 21.5578 224.397 23.2528C225.24 24.9479 225.661 26.9271 225.661 29.1903C225.661 31.4441 225.24 33.4138 224.397 35.0994C223.554 36.785 222.371 38.0966 220.846 39.0341C219.321 39.9716 217.536 40.4403 215.491 40.4403ZM215.505 36.875C216.831 36.875 217.929 36.5246 218.8 35.8239C219.672 35.1231 220.316 34.1903 220.732 33.0256C221.158 31.8608 221.371 30.5777 221.371 29.1761C221.371 27.7841 221.158 26.5057 220.732 25.3409C220.316 24.1667 219.672 23.2244 218.8 22.5142C217.929 21.804 216.831 21.4489 215.505 21.4489C214.17 21.4489 213.062 21.804 212.181 22.5142C211.31 23.2244 210.661 24.1667 210.235 25.3409C209.818 26.5057 209.61 27.7841 209.61 29.1761C209.61 30.5777 209.818 31.8608 210.235 33.0256C210.661 34.1903 211.31 35.1231 212.181 35.8239C213.062 36.5246 214.17 36.875 215.505 36.875ZM234.308 32.5994L234.28 27.4148H235.018L243.712 18.1818H248.797L238.882 28.6932H238.214L234.308 32.5994ZM230.402 40V10.9091H234.649V40H230.402ZM244.18 40L236.368 29.6307L239.294 26.6619L249.393 40H244.18Z" fill="#F5F3EE"/>
<rect width="50" height="50" fill="#F5F3EE"/>
</svg>
