<svg width="251" height="50" viewBox="0 0 251 50" fill="none" xmlns="http://www.w3.org/2000/svg">
<path d="M69.5852 10.9091V40H65.196V10.9091H69.5852ZM79.8835 27.0455V40H75.6364V18.1818H79.7131V21.733H79.983C80.4848 20.5777 81.2708 19.6496 82.3409 18.9489C83.4205 18.2481 84.7794 17.8977 86.4176 17.8977C87.9044 17.8977 89.2064 18.2102 90.3239 18.8352C91.4413 19.4508 92.3078 20.3693 92.9233 21.5909C93.5388 22.8125 93.8466 24.3229 93.8466 26.1222V40H89.5994V26.6335C89.5994 25.0521 89.1875 23.8163 88.3636 22.9261C87.5398 22.0265 86.4081 21.5767 84.9688 21.5767C83.9839 21.5767 83.108 21.7898 82.3409 22.2159C81.5833 22.642 80.982 23.267 80.5369 24.0909C80.1013 24.9053 79.8835 25.8902 79.8835 27.0455ZM115.892 23.5085L112.043 24.1903C111.882 23.6979 111.626 23.2292 111.276 22.7841C110.935 22.339 110.471 21.9744 109.884 21.6903C109.296 21.4062 108.563 21.2642 107.682 21.2642C106.479 21.2642 105.475 21.5341 104.67 22.0739C103.866 22.6042 103.463 23.2907 103.463 24.1335C103.463 24.8627 103.733 25.4498 104.273 25.8949C104.813 26.34 105.684 26.7045 106.886 26.9886L110.352 27.7841C112.36 28.2481 113.856 28.9631 114.841 29.929C115.826 30.8949 116.318 32.1496 116.318 33.6932C116.318 35 115.939 36.1648 115.182 37.1875C114.434 38.2008 113.387 38.9962 112.043 39.5739C110.707 40.1515 109.159 40.4403 107.398 40.4403C104.955 40.4403 102.961 39.9195 101.418 38.8778C99.8741 37.8267 98.9271 36.3352 98.5767 34.4034L102.682 33.7784C102.938 34.8485 103.463 35.6581 104.259 36.2074C105.054 36.7472 106.091 37.017 107.369 37.017C108.761 37.017 109.874 36.7282 110.707 36.1506C111.541 35.5634 111.957 34.8485 111.957 34.0057C111.957 33.3239 111.702 32.7509 111.19 32.2869C110.688 31.8229 109.917 31.4725 108.875 31.2358L105.182 30.4261C103.146 29.9621 101.64 29.2235 100.665 28.2102C99.6989 27.197 99.2159 25.9138 99.2159 24.3608C99.2159 23.0729 99.5758 21.946 100.295 20.9801C101.015 20.0142 102.009 19.2614 103.278 18.7216C104.547 18.1723 106.001 17.8977 107.639 17.8977C109.997 17.8977 111.853 18.4091 113.207 19.4318C114.562 20.4451 115.456 21.804 115.892 23.5085ZM131.173 18.1818V21.5909H119.255V18.1818H131.173ZM122.451 12.9545H126.698V33.5938C126.698 34.4176 126.821 35.0379 127.067 35.4545C127.314 35.8617 127.631 36.1411 128.019 36.2926C128.417 36.4347 128.848 36.5057 129.312 36.5057C129.653 36.5057 129.951 36.482 130.207 36.4347C130.462 36.3873 130.661 36.3494 130.803 36.321L131.57 39.8295C131.324 39.9242 130.974 40.0189 130.519 40.1136C130.065 40.2178 129.496 40.2746 128.815 40.2841C127.697 40.303 126.656 40.1042 125.69 39.6875C124.724 39.2708 123.942 38.6269 123.346 37.7557C122.749 36.8845 122.451 35.7907 122.451 34.4744V12.9545ZM142.22 40.483C140.838 40.483 139.588 40.2273 138.47 39.7159C137.353 39.1951 136.467 38.4422 135.814 37.4574C135.17 36.4725 134.848 35.2652 134.848 33.8352C134.848 32.6042 135.085 31.5909 135.558 30.7955C136.032 30 136.671 29.3703 137.476 28.9062C138.281 28.4422 139.18 28.0919 140.175 27.8551C141.169 27.6184 142.182 27.4384 143.214 27.3153C144.521 27.1638 145.582 27.0407 146.396 26.946C147.211 26.8419 147.803 26.6761 148.172 26.4489C148.541 26.2216 148.726 25.8523 148.726 25.3409V25.2415C148.726 24.0009 148.375 23.0398 147.675 22.358C146.983 21.6761 145.951 21.3352 144.578 21.3352C143.148 21.3352 142.021 21.6525 141.197 22.2869C140.383 22.9119 139.82 23.608 139.507 24.375L135.516 23.4659C135.989 22.1402 136.68 21.0701 137.589 20.2557C138.508 19.4318 139.564 18.8352 140.757 18.4659C141.95 18.0871 143.205 17.8977 144.521 17.8977C145.393 17.8977 146.316 18.0019 147.291 18.2102C148.276 18.4091 149.195 18.7784 150.047 19.3182C150.909 19.858 151.614 20.6297 152.163 21.6335C152.713 22.6278 152.987 23.9205 152.987 25.5114V40H148.839V37.017H148.669C148.394 37.5663 147.982 38.1061 147.433 38.6364C146.884 39.1667 146.179 39.607 145.317 39.9574C144.455 40.3078 143.423 40.483 142.22 40.483ZM143.143 37.0739C144.318 37.0739 145.321 36.8419 146.155 36.3778C146.998 35.9138 147.637 35.3078 148.072 34.5597C148.518 33.8021 148.74 32.9924 148.74 32.1307V29.3182C148.589 29.4697 148.295 29.6117 147.859 29.7443C147.433 29.8674 146.946 29.9763 146.396 30.071C145.847 30.1562 145.312 30.2367 144.791 30.3125C144.27 30.3788 143.835 30.4356 143.484 30.483C142.661 30.5871 141.908 30.7623 141.226 31.0085C140.554 31.2547 140.014 31.6098 139.607 32.0739C139.209 32.5284 139.01 33.1345 139.01 33.892C139.01 34.9432 139.398 35.7386 140.175 36.2784C140.951 36.8087 141.941 37.0739 143.143 37.0739ZM167.792 48.6364C166.059 48.6364 164.567 48.4091 163.317 47.9545C162.077 47.5 161.064 46.8987 160.278 46.1506C159.492 45.4025 158.905 44.5833 158.516 43.6932L162.167 42.1875C162.423 42.6042 162.763 43.0445 163.19 43.5085C163.625 43.982 164.212 44.3845 164.951 44.7159C165.699 45.0473 166.66 45.2131 167.835 45.2131C169.444 45.2131 170.775 44.8201 171.826 44.0341C172.877 43.2576 173.403 42.017 173.403 40.3125V36.0227H173.133C172.877 36.4867 172.508 37.0028 172.025 37.571C171.551 38.1392 170.898 38.6316 170.065 39.0483C169.231 39.465 168.147 39.6733 166.812 39.6733C165.088 39.6733 163.535 39.2708 162.153 38.4659C160.78 37.6515 159.691 36.4536 158.886 34.8722C158.09 33.2812 157.692 31.3258 157.692 29.0057C157.692 26.6856 158.085 24.697 158.871 23.0398C159.667 21.3826 160.756 20.1136 162.138 19.233C163.521 18.3428 165.088 17.8977 166.84 17.8977C168.194 17.8977 169.288 18.125 170.121 18.5795C170.955 19.0246 171.603 19.5455 172.067 20.142C172.541 20.7386 172.906 21.2642 173.161 21.7188H173.474V18.1818H177.636V40.483C177.636 42.358 177.2 43.8968 176.329 45.0994C175.458 46.3021 174.279 47.1922 172.792 47.7699C171.315 48.3475 169.648 48.6364 167.792 48.6364ZM167.749 36.1506C168.971 36.1506 170.003 35.8665 170.846 35.2983C171.698 34.7206 172.342 33.8968 172.778 32.8267C173.223 31.7472 173.445 30.4545 173.445 28.9489C173.445 27.4811 173.228 26.1884 172.792 25.071C172.356 23.9536 171.717 23.0824 170.874 22.4574C170.031 21.8229 168.99 21.5057 167.749 21.5057C166.471 21.5057 165.406 21.8371 164.553 22.5C163.701 23.1534 163.057 24.0436 162.621 25.1705C162.195 26.2973 161.982 27.5568 161.982 28.9489C161.982 30.3788 162.2 31.6335 162.636 32.7131C163.071 33.7926 163.715 34.6354 164.567 35.2415C165.429 35.8475 166.49 36.1506 167.749 36.1506ZM183.332 40V18.1818H187.437V21.6477H187.664C188.062 20.4735 188.763 19.5502 189.766 18.8778C190.78 18.196 191.925 17.8551 193.204 17.8551C193.469 17.8551 193.781 17.8646 194.141 17.8835C194.511 17.9025 194.799 17.9261 195.008 17.9545V22.017C194.837 21.9697 194.534 21.9176 194.099 21.8608C193.663 21.7945 193.228 21.7614 192.792 21.7614C191.788 21.7614 190.893 21.9744 190.107 22.4006C189.331 22.8172 188.715 23.3996 188.261 24.1477C187.806 24.8864 187.579 25.7292 187.579 26.6761V40H183.332ZM204.837 40.483C203.455 40.483 202.205 40.2273 201.087 39.7159C199.97 39.1951 199.085 38.4422 198.431 37.4574C197.787 36.4725 197.465 35.2652 197.465 33.8352C197.465 32.6042 197.702 31.5909 198.175 30.7955C198.649 30 199.288 29.3703 200.093 28.9062C200.898 28.4422 201.798 28.0919 202.792 27.8551C203.786 27.6184 204.799 27.4384 205.832 27.3153C207.138 27.1638 208.199 27.0407 209.013 26.946C209.828 26.8419 210.42 26.6761 210.789 26.4489C211.158 26.2216 211.343 25.8523 211.343 25.3409V25.2415C211.343 24.0009 210.993 23.0398 210.292 22.358C209.601 21.6761 208.568 21.3352 207.195 21.3352C205.765 21.3352 204.638 21.6525 203.815 22.2869C203 22.9119 202.437 23.608 202.124 24.375L198.133 23.4659C198.606 22.1402 199.298 21.0701 200.207 20.2557C201.125 19.4318 202.181 18.8352 203.374 18.4659C204.567 18.0871 205.822 17.8977 207.138 17.8977C208.01 17.8977 208.933 18.0019 209.908 18.2102C210.893 18.4091 211.812 18.7784 212.664 19.3182C213.526 19.858 214.231 20.6297 214.781 21.6335C215.33 22.6278 215.604 23.9205 215.604 25.5114V40H211.457V37.017H211.286C211.012 37.5663 210.6 38.1061 210.05 38.6364C209.501 39.1667 208.796 39.607 207.934 39.9574C207.072 40.3078 206.04 40.483 204.837 40.483ZM205.761 37.0739C206.935 37.0739 207.939 36.8419 208.772 36.3778C209.615 35.9138 210.254 35.3078 210.69 34.5597C211.135 33.8021 211.357 32.9924 211.357 32.1307V29.3182C211.206 29.4697 210.912 29.6117 210.477 29.7443C210.05 29.8674 209.563 29.9763 209.013 30.071C208.464 30.1562 207.929 30.2367 207.408 30.3125C206.888 30.3788 206.452 30.4356 206.102 30.483C205.278 30.5871 204.525 30.7623 203.843 31.0085C203.171 31.2547 202.631 31.6098 202.224 32.0739C201.826 32.5284 201.627 33.1345 201.627 33.892C201.627 34.9432 202.015 35.7386 202.792 36.2784C203.568 36.8087 204.558 37.0739 205.761 37.0739ZM221.261 40V18.1818H225.338V21.733H225.608C226.063 20.5303 226.806 19.5928 227.838 18.9205C228.87 18.2386 230.106 17.8977 231.545 17.8977C233.004 17.8977 234.225 18.2386 235.21 18.9205C236.205 19.6023 236.938 20.5398 237.412 21.733H237.639C238.16 20.5682 238.989 19.6402 240.125 18.9489C241.261 18.2481 242.616 17.8977 244.188 17.8977C246.167 17.8977 247.781 18.518 249.031 19.7585C250.291 20.9991 250.92 22.8693 250.92 25.3693V40H246.673V25.767C246.673 24.2898 246.271 23.2197 245.466 22.5568C244.661 21.8939 243.7 21.5625 242.582 21.5625C241.2 21.5625 240.125 21.9886 239.358 22.8409C238.591 23.6837 238.207 24.768 238.207 26.0938V40H233.974V25.4972C233.974 24.3134 233.605 23.3617 232.866 22.642C232.128 21.9223 231.167 21.5625 229.983 21.5625C229.178 21.5625 228.435 21.7756 227.753 22.2017C227.08 22.6184 226.536 23.2008 226.119 23.9489C225.712 24.697 225.509 25.5634 225.509 26.5483V40H221.261Z" fill="#F5F3EE"/>
<rect width="50" height="50" fill="#F5F3EE"/>
</svg>
