<svg width="221" height="50" viewBox="0 0 221 50" fill="none" xmlns="http://www.w3.org/2000/svg">
<path d="M65.196 40V10.9091H69.5852V36.2216H82.767V40H65.196ZM87.4332 40V18.1818H91.6804V40H87.4332ZM89.5781 14.8153C88.8395 14.8153 88.205 14.5691 87.6747 14.0767C87.1539 13.5748 86.8935 12.9782 86.8935 12.2869C86.8935 11.5862 87.1539 10.9896 87.6747 10.4972C88.205 9.99526 88.8395 9.74432 89.5781 9.74432C90.3168 9.74432 90.9465 9.99526 91.4673 10.4972C91.9976 10.9896 92.2628 11.5862 92.2628 12.2869C92.2628 12.9782 91.9976 13.5748 91.4673 14.0767C90.9465 14.5691 90.3168 14.8153 89.5781 14.8153ZM101.641 27.0455V40H97.3942V18.1818H101.471V21.733H101.741C102.243 20.5777 103.029 19.6496 104.099 18.9489C105.178 18.2481 106.537 17.8977 108.175 17.8977C109.662 17.8977 110.964 18.2102 112.082 18.8352C113.199 19.4508 114.066 20.3693 114.681 21.5909C115.297 22.8125 115.604 24.3229 115.604 26.1222V40H111.357V26.6335C111.357 25.0521 110.945 23.8163 110.121 22.9261C109.298 22.0265 108.166 21.5767 106.727 21.5767C105.742 21.5767 104.866 21.7898 104.099 22.2159C103.341 22.642 102.74 23.267 102.295 24.0909C101.859 24.9053 101.641 25.8902 101.641 27.0455ZM125.207 32.5994L125.178 27.4148H125.917L134.61 18.1818H139.695L129.781 28.6932H129.113L125.207 32.5994ZM121.3 40V10.9091H125.548V40H121.3ZM135.079 40L127.266 29.6307L130.192 26.6619L140.292 40H135.079ZM152.071 40.4403C149.921 40.4403 148.07 39.9811 146.517 39.0625C144.973 38.1345 143.78 36.8324 142.938 35.1562C142.104 33.4706 141.688 31.4962 141.688 29.233C141.688 26.9981 142.104 25.0284 142.938 23.3239C143.78 21.6193 144.955 20.2888 146.46 19.3324C147.975 18.3759 149.746 17.8977 151.773 17.8977C153.004 17.8977 154.197 18.1013 155.352 18.5085C156.508 18.9157 157.545 19.5549 158.463 20.4261C159.382 21.2973 160.106 22.429 160.636 23.821C161.167 25.2036 161.432 26.8845 161.432 28.8636V30.3693H144.088V27.1875H157.27C157.27 26.0701 157.043 25.0805 156.588 24.2188C156.134 23.3475 155.494 22.661 154.67 22.1591C153.856 21.6572 152.9 21.4062 151.801 21.4062C150.608 21.4062 149.566 21.6998 148.676 22.2869C147.795 22.8646 147.114 23.6222 146.631 24.5597C146.157 25.4877 145.92 26.4962 145.92 27.5852V30.071C145.92 31.5294 146.176 32.7699 146.688 33.7926C147.208 34.8153 147.933 35.5966 148.861 36.1364C149.789 36.6667 150.873 36.9318 152.114 36.9318C152.919 36.9318 153.652 36.8182 154.315 36.5909C154.978 36.3542 155.551 36.0038 156.034 35.5398C156.517 35.0758 156.886 34.5028 157.142 33.821L161.162 34.5455C160.84 35.7292 160.262 36.7661 159.429 37.6562C158.605 38.5369 157.568 39.2235 156.318 39.7159C155.078 40.1989 153.662 40.4403 152.071 40.4403ZM174.312 40.4261C172.55 40.4261 170.978 39.9763 169.596 39.0767C168.223 38.1676 167.143 36.875 166.357 35.1989C165.581 33.5133 165.192 31.4915 165.192 29.1335C165.192 26.7756 165.585 24.7585 166.371 23.0824C167.167 21.4062 168.256 20.1231 169.638 19.233C171.021 18.3428 172.588 17.8977 174.34 17.8977C175.694 17.8977 176.783 18.125 177.607 18.5795C178.441 19.0246 179.085 19.5455 179.539 20.142C180.003 20.7386 180.363 21.2642 180.619 21.7188H180.874V10.9091H185.121V40H180.974V36.6051H180.619C180.363 37.0691 179.994 37.5994 179.511 38.196C179.037 38.7926 178.384 39.3134 177.55 39.7585C176.717 40.2036 175.638 40.4261 174.312 40.4261ZM175.249 36.804C176.471 36.804 177.503 36.482 178.346 35.8381C179.198 35.1847 179.842 34.2803 180.278 33.125C180.723 31.9697 180.945 30.625 180.945 29.0909C180.945 27.5758 180.728 26.25 180.292 25.1136C179.856 23.9773 179.217 23.0919 178.374 22.4574C177.531 21.8229 176.49 21.5057 175.249 21.5057C173.971 21.5057 172.906 21.8371 172.053 22.5C171.201 23.1629 170.557 24.0672 170.121 25.2131C169.695 26.3589 169.482 27.6515 169.482 29.0909C169.482 30.5492 169.7 31.8608 170.136 33.0256C170.571 34.1903 171.215 35.1136 172.067 35.7955C172.929 36.4678 173.99 36.804 175.249 36.804ZM195.913 10.9091V40H191.524V10.9091H195.913ZM206.212 27.0455V40H201.964V18.1818H206.041V21.733H206.311C206.813 20.5777 207.599 19.6496 208.669 18.9489C209.749 18.2481 211.107 17.8977 212.746 17.8977C214.232 17.8977 215.535 18.2102 216.652 18.8352C217.769 19.4508 218.636 20.3693 219.251 21.5909C219.867 22.8125 220.175 24.3229 220.175 26.1222V40H215.928V26.6335C215.928 25.0521 215.516 23.8163 214.692 22.9261C213.868 22.0265 212.736 21.5767 211.297 21.5767C210.312 21.5767 209.436 21.7898 208.669 22.2159C207.911 22.642 207.31 23.267 206.865 24.0909C206.429 24.9053 206.212 25.8902 206.212 27.0455Z" fill="#F5F3EE"/>
<rect width="50" height="50" fill="#F5F3EE"/>
</svg>
