<svg width="226" height="50" viewBox="0 0 226 50" fill="none" xmlns="http://www.w3.org/2000/svg">
<path d="M62.9517 10.9091H67.9375L75.5369 24.1335H75.8494L83.4489 10.9091H88.4347L77.8807 28.5795V40H73.5057V28.5795L62.9517 10.9091ZM97.8345 40.4403C95.7891 40.4403 94.004 39.9716 92.4794 39.0341C90.9548 38.0966 89.7711 36.785 88.9283 35.0994C88.0855 33.4138 87.6641 31.4441 87.6641 29.1903C87.6641 26.9271 88.0855 24.9479 88.9283 23.2528C89.7711 21.5578 90.9548 20.2415 92.4794 19.304C94.004 18.3665 95.7891 17.8977 97.8345 17.8977C99.88 17.8977 101.665 18.3665 103.19 19.304C104.714 20.2415 105.898 21.5578 106.741 23.2528C107.584 24.9479 108.005 26.9271 108.005 29.1903C108.005 31.4441 107.584 33.4138 106.741 35.0994C105.898 36.785 104.714 38.0966 103.19 39.0341C101.665 39.9716 99.88 40.4403 97.8345 40.4403ZM97.8487 36.875C99.1745 36.875 100.273 36.5246 101.144 35.8239C102.015 35.1231 102.659 34.1903 103.076 33.0256C103.502 31.8608 103.715 30.5777 103.715 29.1761C103.715 27.7841 103.502 26.5057 103.076 25.3409C102.659 24.1667 102.015 23.2244 101.144 22.5142C100.273 21.804 99.1745 21.4489 97.8487 21.4489C96.5135 21.4489 95.4055 21.804 94.5249 22.5142C93.6536 23.2244 93.005 24.1667 92.5788 25.3409C92.1622 26.5057 91.9538 27.7841 91.9538 29.1761C91.9538 30.5777 92.1622 31.8608 92.5788 33.0256C93.005 34.1903 93.6536 35.1231 94.5249 35.8239C95.4055 36.5246 96.5135 36.875 97.8487 36.875ZM126.567 30.9517V18.1818H130.828V40H126.652V36.2216H126.425C125.923 37.3864 125.118 38.357 124.01 39.1335C122.911 39.9006 121.543 40.2841 119.905 40.2841C118.503 40.2841 117.263 39.9763 116.183 39.3608C115.113 38.7358 114.27 37.8125 113.655 36.5909C113.049 35.3693 112.746 33.8589 112.746 32.0597V18.1818H116.993V31.5483C116.993 33.035 117.405 34.2187 118.229 35.0994C119.053 35.9801 120.123 36.4205 121.439 36.4205C122.234 36.4205 123.025 36.2216 123.811 35.8239C124.607 35.4261 125.265 34.8248 125.786 34.0199C126.316 33.215 126.576 32.1922 126.567 30.9517ZM133.41 14.6875V10.9091H155.924V14.6875H146.847V40H142.472V14.6875H133.41ZM171.411 30.9517V18.1818H175.672V40H171.496V36.2216H171.268C170.767 37.3864 169.962 38.357 168.854 39.1335C167.755 39.9006 166.387 40.2841 164.749 40.2841C163.347 40.2841 162.107 39.9763 161.027 39.3608C159.957 38.7358 159.114 37.8125 158.499 36.5909C157.893 35.3693 157.589 33.8589 157.589 32.0597V18.1818H161.837V31.5483C161.837 33.035 162.249 34.2187 163.072 35.0994C163.896 35.9801 164.966 36.4205 166.283 36.4205C167.078 36.4205 167.869 36.2216 168.655 35.8239C169.45 35.4261 170.108 34.8248 170.629 34.0199C171.16 33.215 171.42 32.1922 171.411 30.9517ZM181.719 40V10.9091H185.967V21.7188H186.222C186.469 21.2642 186.824 20.7386 187.288 20.142C187.752 19.5455 188.396 19.0246 189.219 18.5795C190.043 18.125 191.132 17.8977 192.487 17.8977C194.248 17.8977 195.82 18.3428 197.202 19.233C198.585 20.1231 199.669 21.4062 200.455 23.0824C201.251 24.7585 201.648 26.7756 201.648 29.1335C201.648 31.4915 201.255 33.5133 200.469 35.1989C199.683 36.875 198.604 38.1676 197.231 39.0767C195.858 39.9763 194.29 40.4261 192.529 40.4261C191.203 40.4261 190.119 40.2036 189.276 39.7585C188.443 39.3134 187.79 38.7926 187.316 38.196C186.843 37.5994 186.478 37.0691 186.222 36.6051H185.867V40H181.719ZM185.881 29.0909C185.881 30.625 186.104 31.9697 186.549 33.125C186.994 34.2803 187.638 35.1847 188.481 35.8381C189.324 36.482 190.356 36.804 191.577 36.804C192.846 36.804 193.907 36.4678 194.759 35.7955C195.612 35.1136 196.255 34.1903 196.691 33.0256C197.136 31.8608 197.359 30.5492 197.359 29.0909C197.359 27.6515 197.141 26.3589 196.705 25.2131C196.279 24.0672 195.635 23.1629 194.773 22.5C193.921 21.8371 192.856 21.5057 191.577 21.5057C190.346 21.5057 189.305 21.8229 188.452 22.4574C187.61 23.0919 186.97 23.9773 186.535 25.1136C186.099 26.25 185.881 27.5758 185.881 29.0909ZM215.821 40.4403C213.671 40.4403 211.82 39.9811 210.267 39.0625C208.723 38.1345 207.53 36.8324 206.688 35.1562C205.854 33.4706 205.438 31.4962 205.438 29.233C205.438 26.9981 205.854 25.0284 206.688 23.3239C207.53 21.6193 208.705 20.2888 210.21 19.3324C211.725 18.3759 213.496 17.8977 215.523 17.8977C216.754 17.8977 217.947 18.1013 219.102 18.5085C220.258 18.9157 221.295 19.5549 222.213 20.4261C223.132 21.2973 223.856 22.429 224.386 23.821C224.917 25.2036 225.182 26.8845 225.182 28.8636V30.3693H207.838V27.1875H221.02C221.02 26.0701 220.793 25.0805 220.338 24.2188C219.884 23.3475 219.244 22.661 218.42 22.1591C217.606 21.6572 216.65 21.4062 215.551 21.4062C214.358 21.4062 213.316 21.6998 212.426 22.2869C211.545 22.8646 210.864 23.6222 210.381 24.5597C209.907 25.4877 209.67 26.4962 209.67 27.5852V30.071C209.67 31.5294 209.926 32.7699 210.438 33.7926C210.958 34.8153 211.683 35.5966 212.611 36.1364C213.539 36.6667 214.623 36.9318 215.864 36.9318C216.669 36.9318 217.402 36.8182 218.065 36.5909C218.728 36.3542 219.301 36.0038 219.784 35.5398C220.267 35.0758 220.636 34.5028 220.892 33.821L224.912 34.5455C224.59 35.7292 224.012 36.7661 223.179 37.6562C222.355 38.5369 221.318 39.2235 220.068 39.7159C218.828 40.1989 217.412 40.4403 215.821 40.4403Z" fill="#F5F3EE"/>
<rect width="50" height="50" fill="#F5F3EE"/>
</svg>
